# xmcd CD database file
#
# Track frame offsets:
#	150
#	12930
#	29674
#	39596
#	45804
#	49609
#	58523
#	65813
#	71830
#	79011
#	82365
#	102732
#	112425
#	119884
#	125959
#	143550
#	156946
#	170347
#	178045
#
# Disc length: 2551 seconds
#
# Revision: 1
# Processed by: cddbd v1.5.2PL0 Copyright (c) Steve Scherf et al.
# Submitted via: CDex 1.51
#
DISCID=2409f513
DTITLE=Erik Satie - Pièces pour piano  [CD 1-2]
DYEAR=1900
DGENRE=Piano
TTITLE0=Gymnopédie N°1  . . . . . .  { Francis Poulenc, piano }
TTITLE1=Sarabande N°2
TTITLE2=Gnossienne N°3
TTITLE3=Aubade
TTITLE4=Méditation
TTITLE5=Tyrolienne turque
TTITLE6=Danse maigre
TTITLE7=Le gros bonhomme en bois
TTITLE8=Sur une lanterne
TTITLE9=Sur un casque
TTITLE10=Poudre d'or  . . . . . . . . . . { Klara Nilsen, piano }
TTITLE11=Embryons dessèchés
TTITLE12=Heures séculaires
TTITLE13=Valse distinguée du précieux dégouté
TTITLE14=Sonate bureaucratique
TTITLE15=Un peu mouvementé
TTITLE16=Pièce froide à faire fuir
TTITLE17=La Modeste
TTITLE18=L'Invitation
EXTD=
EXTT0=
EXTT1=
EXTT2=
EXTT3=
EXTT4=
EXTT5=
EXTT6=
EXTT7=
EXTT8=
EXTT9=
EXTT10=
EXTT11=
EXTT12=
EXTT13=
EXTT14=
EXTT15=
EXTT16=
EXTT17=
EXTT18=
PLAYORDER=
